<?xml version="1.0" encoding="UTF-8"?>
<svg width="32px" height="32px" viewBox="0 0 32 32" version="1.1" xmlns="http://www.w3.org/2000/svg" xmlns:xlink="http://www.w3.org/1999/xlink">
    <title>wanUSDC</title>
    <g id="1" stroke="none" stroke-width="1" fill="none" fill-rule="evenodd">
        <g id="wanUSDC" transform="translate(0.000000, 0.000000)">
            <circle id="circle" fill="#FFFFFF" cx="16" cy="16" r="16"></circle>
            <path d="M3.16225,19.6038125 C3.608875,21.1561875 4.291375,22.5924375 5.2583125,23.887375 C7.273375,26.58625 9.9325,28.305625 13.2209375,29.0121875 C16.24125,29.66125 19.1458125,29.2609375 21.922625,27.9096875 C22.48275,27.6370625 23.0953125,27.7605625 23.5210625,28.2074375 C23.9099375,28.6155625 23.9970625,29.282625 23.689875,29.797625 C23.58425,29.97475 23.4119375,30.1448125 23.22925,30.238375 C21.327375,31.211875 19.310375,31.782125 17.175125,31.9244375 C17.053125,31.932625 16.9333125,31.9740625 16.8125,32 L15.1875,32 C14.8390625,31.9529375 14.4913125,31.89975 14.1420625,31.8596875 C11.052,31.5050625 8.3,30.33675 5.8994375,28.370375 C3.3059375,26.246 1.5451875,23.5599375 0.621375,20.3315 C0.4005625,19.5596875 0.7303125,18.891 1.44275,18.6740625 C2.184875,18.448125 2.9453125,18.849625 3.16225,19.6038125 Z M24.743,2.6306875 C28.42,5.10925 30.743875,8.5060625 31.6558125,12.8501875 C31.794,13.508625 31.8355,14.18725 31.9254375,14.856 C31.9405,14.9678125 31.9746875,15.0770625 32,15.1875 L32,16.8125 C31.9529375,17.1609375 31.900125,17.5088125 31.859625,17.858 C31.4931875,21.01375 30.2785,23.8045625 28.2506875,26.24425 C27.9980625,26.5481875 27.706375,26.820375 27.4619375,27.13025 C26.9674375,27.757125 26.0914375,27.7325 25.5520625,27.2355 C24.99175,26.7191875 24.9836875,25.8494375 25.531625,25.280625 C26.5415,24.2323125 27.3725,23.0589375 27.992625,21.74225 C28.7523125,20.1290625 29.1945625,18.4369375 29.2805625,16.6473125 C29.4365,13.4010625 28.503125,10.4990625 26.566375,7.9110625 C25.6681875,6.7109375 24.558125,5.728875 23.31775,4.891125 C22.883875,4.598 22.6774375,4.1680625 22.7294375,3.6629375 C22.7864375,3.1089375 23.0850625,2.6871875 23.6393125,2.509 C24.0179375,2.38725 24.3925,2.3944375 24.743,2.6306875 Z M16.8125,0 L17.8603519,0.132986111 C18.03475,0.156590278 18.2088333,0.1820625 18.3823125,0.211125 C18.93475,0.303625 19.4865,0.4085 20.030375,0.5413125 C20.6850625,0.7011875 21.09425,1.414 20.9356875,2.0641875 C20.7531875,2.8123125 20.078875,3.291 19.3889375,3.1280625 C18.3241875,2.8765 17.2481875,2.7010625 16.15525,2.6894375 C14.286,2.6695625 12.484,3.021375 10.7578125,3.750375 C9.2188125,4.4003125 7.8456875,5.3105 6.6640625,6.4805625 C4.7183125,8.4071875 3.457625,10.7234375 2.92325,13.4169375 C2.8064375,14.005875 2.7505625,14.6074375 2.6784375,15.2045625 C2.594625,15.8988125 2.231125,16.297375 1.526375,16.4445 C1.004875,16.553375 0.4394375,16.2593125 0.1325,15.7239375 C0.0983125,15.664375 0.044625,15.616 0,15.5625 L0,15.1875 C0.0265,15.05625 0.061125,14.9260625 0.0781875,14.793625 C0.1524375,14.216875 0.1883125,13.633 0.298,13.0633125 C0.9840625,9.500875 2.6726875,6.49475 5.3791875,4.0774375 C7.7450625,1.9645 10.505125,0.6701875 13.6475,0.2055 C14.1598125,0.12975 14.674125,0.068125 15.1875,0 L16.8125,0 Z" id="shape" fill="#0070BB"></path>
            <path d="M18.7898704,6.01771468 C18.8494516,5.77999369 19.0882063,5.66120449 19.326961,5.77999369 C22.6090861,6.84952426 25.234958,9.40456149 26.3091393,12.7914083 C28.0994414,18.4361054 24.9962033,24.4374554 19.326961,26.2200063 C19.2672365,26.2793296 19.1479308,26.2793296 19.0882063,26.2793296 C18.8494516,26.2200063 18.7301459,26.0417512 18.7301459,25.8040302 L18.7301459,25.8040302 L18.7301459,24.9722206 C18.7301459,24.6750338 18.8494516,24.4967787 19.0882063,24.3779895 C21.5349048,23.486714 23.5042371,21.5853738 24.3993882,19.0898025 C26.1301091,14.5144933 23.7429918,9.34509559 19.0882063,7.68147644 C18.9091761,7.56254464 18.7301459,7.32496625 18.7301459,7.08724525 L18.7301459,7.08724525 L18.7306237,6.19075161 C18.7325349,6.11276885 18.7420908,6.0652874 18.7898704,6.01771468 Z M13.0011791,5.72067039 C13.2399338,5.77999369 13.3592396,5.95824878 13.3592396,6.19596978 L13.3592396,6.19596978 L13.3592396,7.02777935 C13.3592396,7.32496625 13.2399338,7.50322134 13.0011791,7.62201054 C10.5544807,8.51328601 8.58514834,10.4146262 7.68999728,12.9101975 C5.95927642,17.4855067 8.34639365,22.6549044 13.0011791,24.3185236 C13.1802094,24.4374554 13.3592396,24.6750338 13.3592396,24.8532888 L13.3592396,24.8532888 L13.3587618,25.7498692 C13.3568506,25.8278109 13.3472947,25.8753608 13.2995151,25.9228194 C13.2399338,26.1605404 13.0011791,26.2793296 12.7624245,26.1605404 C9.42057492,25.0910098 6.85442748,22.5359726 5.78024621,19.2085917 C3.9899441,13.5638946 7.09318217,7.56254464 12.7624245,5.77999369 C12.8221489,5.72067039 12.9414547,5.72067039 13.0011791,5.72067039 Z M16.4624776,8.8103303 C16.7608136,8.8697962 16.9398438,9.0480513 16.9398438,9.28577229 L16.9398438,9.28577229 L16.9398438,10.7118131 C18.312361,10.8306022 19.3865423,11.8406669 19.625297,13.1479185 L19.625297,13.1479185 L19.625297,13.2073844 C19.625297,13.4449628 19.4462668,13.6232179 19.2075121,13.6232179 L19.2075121,13.6232179 L18.2527798,13.6232179 C18.0737495,13.6232179 17.8947193,13.5044287 17.8349949,13.3261736 C17.5366589,12.4348981 16.9398438,12.0783879 15.8656625,12.0783879 C14.6721755,12.0783879 14.0753604,12.6130106 14.0753604,13.4449628 C14.0753604,14.2769149 14.4334208,14.7522143 16.2237229,14.9899353 C18.7301459,15.2869796 19.9833574,16 19.9833574,18.0795952 C19.9833574,19.6838911 18.7898704,20.9316768 16.9995683,21.2288637 L16.9995683,21.2288637 L16.9995683,22.6549044 C16.9398438,22.9519487 16.7608136,23.1302038 16.5220589,23.1302038 L16.5220589,23.1302038 L15.6269078,23.1302038 C15.3285719,23.0707379 15.1495417,22.8924828 15.1495417,22.6549044 L15.1495417,22.6549044 L15.1495417,21.2288637 C13.1802094,20.9316768 12.2253338,19.8621462 11.9867224,18.3767821 L11.9867224,18.3767821 L11.9867224,18.3173162 C11.9867224,18.0795952 12.1657526,17.9013401 12.404364,17.9013401 L12.404364,17.9013401 L13.418964,17.9013401 C13.5979943,17.9013401 13.7770245,18.0202719 13.8366057,18.2578503 C14.0156359,19.1491258 14.5527266,19.8028229 16.1044172,19.8028229 C17.2381797,19.8028229 18.0737495,19.1492684 18.0737495,18.198527 C18.0737495,17.2477857 17.5366589,16.8912755 15.8656625,16.5942312 C13.3592396,16.2970443 12.1657526,15.5247006 12.1657526,13.5638946 C12.1657526,12.0783879 13.2995151,10.8900681 15.0898172,10.6523472 L15.0898172,10.6523472 L15.0898172,9.28577229 C15.1495417,8.9885854 15.3285719,8.8103303 15.5673266,8.8103303 L15.5673266,8.8103303 Z" id="shape" fill="#2775CA" fill-rule="nonzero"></path>
        </g>
    </g>
</svg>