<?xml version="1.0" encoding="UTF-8"?>
<svg width="32px" height="32px" viewBox="0 0 32 32" version="1.1" xmlns="http://www.w3.org/2000/svg" xmlns:xlink="http://www.w3.org/1999/xlink">
    <title>USDT</title>
    <g id="1" stroke="none" stroke-width="1" fill="none" fill-rule="evenodd">
        <g id="USDT" fill-rule="nonzero">
            <g>
                <circle id="circle" fill="#50AF95" cx="16" cy="16" r="16"></circle>
                <path d="M17.8842458,17.3917318 L17.8842458,17.3917318 C17.7769832,17.3997765 17.2227933,17.4328492 15.9865922,17.4328492 C15.003352,17.4328492 14.3052514,17.403352 14.0603352,17.3917318 L14.0603352,17.3917318 C10.2605587,17.224581 7.42435754,16.5631285 7.42435754,15.7711732 C7.42435754,14.9792179 10.2605587,14.3186592 14.0603352,14.1488268 L14.0603352,16.7329609 C14.3088268,16.750838 15.0203352,16.7928492 16.0035754,16.7928492 C17.1834637,16.7928492 17.7743017,16.7436872 17.8806704,16.7338547 L17.8806704,14.1506145 C21.6724022,14.3195531 24.5023464,14.9810056 24.5023464,15.7711732 C24.5023464,16.5613408 21.6732961,17.2227933 17.8806704,17.390838 L17.8806704,17.390838 L17.8842458,17.3917318 Z M17.8842458,13.883352 L17.8842458,11.5709497 L23.1758659,11.5709497 L23.1758659,8.04469274 L8.76871508,8.04469274 L8.76871508,11.5709497 L14.0594413,11.5709497 L14.0594413,13.8824581 C9.75910615,14.08 6.52513966,14.9318436 6.52513966,15.9526257 C6.52513966,16.9734078 9.75910615,17.8243575 14.0594413,18.0227933 L14.0594413,25.4328492 L17.883352,25.4328492 L17.883352,18.0201117 C22.1738547,17.8225698 25.4024581,16.9716201 25.4024581,15.9517318 C25.4024581,14.9318436 22.1765363,14.0808939 17.883352,13.8824581 L17.883352,13.8824581 L17.8842458,13.883352 Z" id="shape" fill="#FFFFFF"></path>
            </g>
        </g>
    </g>
</svg>