<?xml version="1.0" encoding="UTF-8"?>
<svg width="32px" height="32px" viewBox="0 0 32 32" version="1.1" xmlns="http://www.w3.org/2000/svg" xmlns:xlink="http://www.w3.org/1999/xlink">
    <title>USDT</title>
    <g id="1" stroke="none" stroke-width="1" fill="none" fill-rule="evenodd">
        <g id="USDT" transform="translate(0.000000, -0.000000)">
            <circle id="circle" fill="#FFFFFF" cx="16" cy="16" r="16"></circle>
            <path d="M3.16225,19.6038125 C3.608875,21.1561875 4.291375,22.5924375 5.2583125,23.887375 C7.273375,26.58625 9.9325,28.305625 13.2209375,29.0121875 C16.24125,29.66125 19.1458125,29.2609375 21.922625,27.9096875 C22.48275,27.6370625 23.0953125,27.7605625 23.5210625,28.2074375 C23.9099375,28.6155625 23.9970625,29.282625 23.689875,29.797625 C23.58425,29.97475 23.4119375,30.1448125 23.22925,30.238375 C21.327375,31.211875 19.310375,31.782125 17.175125,31.9244375 C17.053125,31.932625 16.9333125,31.9740625 16.8125,32 L15.1875,32 C14.8390625,31.9529375 14.4913125,31.89975 14.1420625,31.8596875 C11.052,31.5050625 8.3,30.33675 5.8994375,28.370375 C3.3059375,26.246 1.5451875,23.5599375 0.621375,20.3315 C0.4005625,19.5596875 0.7303125,18.891 1.44275,18.6740625 C2.184875,18.448125 2.9453125,18.849625 3.16225,19.6038125 Z M24.743,2.6306875 C28.42,5.10925 30.743875,8.5060625 31.6558125,12.8501875 C31.794,13.508625 31.8355,14.18725 31.9254375,14.856 C31.9405,14.9678125 31.9746875,15.0770625 32,15.1875 L32,16.8125 C31.9529375,17.1609375 31.900125,17.5088125 31.859625,17.858 C31.4931875,21.01375 30.2785,23.8045625 28.2506875,26.24425 C27.9980625,26.5481875 27.706375,26.820375 27.4619375,27.13025 C26.9674375,27.757125 26.0914375,27.7325 25.5520625,27.2355 C24.99175,26.7191875 24.9836875,25.8494375 25.531625,25.280625 C26.5415,24.2323125 27.3725,23.0589375 27.992625,21.74225 C28.7523125,20.1290625 29.1945625,18.4369375 29.2805625,16.6473125 C29.4365,13.4010625 28.503125,10.4990625 26.566375,7.9110625 C25.6681875,6.7109375 24.558125,5.728875 23.31775,4.891125 C22.883875,4.598 22.6774375,4.1680625 22.7294375,3.6629375 C22.7864375,3.1089375 23.0850625,2.6871875 23.6393125,2.509 C24.0179375,2.38725 24.3925,2.3944375 24.743,2.6306875 Z M16.8125,0 L17.8603519,0.132986111 C18.03475,0.156590278 18.2088333,0.1820625 18.3823125,0.211125 C18.93475,0.303625 19.4865,0.4085 20.030375,0.5413125 C20.6850625,0.7011875 21.09425,1.414 20.9356875,2.0641875 C20.7531875,2.8123125 20.078875,3.291 19.3889375,3.1280625 C18.3241875,2.8765 17.2481875,2.7010625 16.15525,2.6894375 C14.286,2.6695625 12.484,3.021375 10.7578125,3.750375 C9.2188125,4.4003125 7.8456875,5.3105 6.6640625,6.4805625 C4.7183125,8.4071875 3.457625,10.7234375 2.92325,13.4169375 C2.8064375,14.005875 2.7505625,14.6074375 2.6784375,15.2045625 C2.594625,15.8988125 2.231125,16.297375 1.526375,16.4445 C1.004875,16.553375 0.4394375,16.2593125 0.1325,15.7239375 C0.0983125,15.664375 0.044625,15.616 0,15.5625 L0,15.1875 C0.0265,15.05625 0.061125,14.9260625 0.0781875,14.793625 C0.1524375,14.216875 0.1883125,13.633 0.298,13.0633125 C0.9840625,9.500875 2.6726875,6.49475 5.3791875,4.0774375 C7.7450625,1.9645 10.505125,0.6701875 13.6475,0.2055 C14.1598125,0.12975 14.674125,0.068125 15.1875,0 L16.8125,0 Z" id="shape" fill="#0070BB"></path>
            <path d="M17.4329277,17.6759369 L17.4329277,17.6759369 C17.324968,17.6842646 16.7671765,17.718501 15.5229414,17.718501 C14.5333112,17.718501 13.8306738,17.6879659 13.5841659,17.6759369 L13.5841659,17.6759369 C9.75969506,17.5029044 6.90506179,16.8181771 6.90506179,15.998355 C6.90506179,15.1785329 9.75969506,14.4947309 13.5841659,14.3189225 L13.5841659,16.9939855 C13.8342725,17.0124916 14.5504048,17.0559811 15.540035,17.0559811 C16.7275913,17.0559811 17.322269,17.0050892 17.429329,16.9949108 L17.429329,14.3207731 C21.2457029,14.4956562 24.0940385,15.1803835 24.0940385,15.998355 C24.0940385,16.8163265 21.2466026,17.5010538 17.429329,17.6750116 L17.429329,17.6750116 L17.4329277,17.6759369 Z M17.4329277,14.0441063 L17.4329277,11.6503367 L22.7589374,11.6503367 L22.7589374,8 L8.25815616,8 L8.25815616,11.6503367 L13.5832663,11.6503367 L13.5832663,14.043181 C9.25498366,14.2476739 6,15.1294916 6,16.1861924 C6,17.2428931 9.25498366,18.1237855 13.5832663,18.3292037 L13.5832663,26 L17.432028,26 L17.432028,18.3264278 C21.7504143,18.1219349 25,17.2410425 25,16.1852671 C25,15.1294916 21.7531133,14.2485992 17.432028,14.043181 L17.432028,14.043181 L17.4329277,14.0441063 Z" id="shape" fill="#50AF95"></path>
        </g>
    </g>
</svg>